<svg xmlns="http://www.w3.org/2000/svg" width="30" height="26" viewBox="0 0 30 26" fill="none">
  <path fill-rule="evenodd" clip-rule="evenodd" d="M5.67776 0.588102C6.8261 0.332903 8.19374 0.25 9.77534 0.25H12.067C13.488 0.25 14.815 0.960175 15.6032 2.14252L16.7543 3.86916C17.0171 4.26325 17.4593 4.5 17.9331 4.5H25.0949C27.358 4.5 29.1923 6.28663 29.1708 8.58737C29.145 11.3272 29.1667 14.068 29.1667 16.808C29.1667 18.3896 29.0838 19.7572 28.8285 20.9056C28.5698 22.0701 28.1154 23.0939 27.313 23.8963C26.5106 24.6987 25.4867 25.1532 24.3222 25.4118C23.1739 25.6671 21.8062 25.75 20.2247 25.75H9.77534C8.19374 25.75 6.8261 25.6671 5.67776 25.4118C4.51333 25.1532 3.48942 24.6987 2.68702 23.8963C1.88464 23.0939 1.43023 22.0701 1.17145 20.9056C0.916247 19.7572 0.833344 18.3896 0.833344 16.808V9.192C0.833344 7.61039 0.916247 6.24275 1.17145 5.09442C1.43023 3.92999 1.88464 2.90608 2.68702 2.10368C3.48942 1.30129 4.51333 0.846884 5.67776 0.588102ZM16.4167 11.5833C16.4167 10.8009 15.7824 10.1667 15 10.1667C14.2176 10.1667 13.5833 10.8009 13.5833 11.5833V15.9549L12.4601 14.8316C11.9068 14.2784 11.0099 14.2784 10.4566 14.8316C9.90337 15.3848 9.90337 16.2818 10.4566 16.8351L13.9097 20.2882C13.9249 20.3033 13.9403 20.3182 13.9561 20.3327C14.215 20.6147 14.5868 20.7917 15 20.7917C15.4133 20.7917 15.785 20.6147 16.044 20.3327C16.0597 20.3182 16.0751 20.3033 16.0903 20.2882L19.5434 16.8351C20.0966 16.2818 20.0966 15.3848 19.5434 14.8316C18.9902 14.2784 18.0932 14.2784 17.54 14.8316L16.4167 15.9549V11.5833Z" fill="#DAD5CB"/>
</svg>
