<svg xmlns="http://www.w3.org/2000/svg" width="34" height="34" viewBox="0 0 34 34" fill="none">
  <path d="M32.3 24.9333H26.6333V10.7667L29.4667 7.36667L32.3 10.7667V24.9333Z" fill="#DAD5CB"/>
  <path d="M30.6 31.1667H28.3333C27.3949 31.1667 26.6333 30.4056 26.6333 29.4667V27.2H32.3V29.4667C32.3 30.4056 31.5384 31.1667 30.6 31.1667Z" fill="#DAD5CB"/>
  <path d="M23.456 10.2H17.5667C17.2533 10.2 17 9.9467 17 9.63333V3.7434C17 3.53657 17.1683 3.4 17.3457 3.4C17.4301 3.4 17.5168 3.43117 17.5865 3.50087L23.6991 9.6135C23.77 9.6849 23.8 9.77273 23.8 9.85887C23.8 10.034 23.6617 10.2 23.456 10.2Z" fill="#DAD5CB"/>
  <path d="M17.5667 11.9C16.3149 11.9 15.3 10.8851 15.3 9.63333V3.4H3.4C2.7744 3.4 2.26666 3.90773 2.26666 4.53333V30.0333C2.26666 30.6589 2.7744 31.1667 3.4 31.1667H22.6667C23.2923 31.1667 23.8 30.6589 23.8 30.0333V11.9H17.5667ZM6.23333 19.2667H15.3V21.5333H6.23333V19.2667ZM19.8333 26.0667H6.23333V23.8H19.8333V26.0667ZM19.8333 17H6.23333V14.7333H19.8333V17Z" fill="#DAD5CB"/>
</svg>
