<svg xmlns="http://www.w3.org/2000/svg" width="34" height="34" viewBox="0 0 34 34" fill="none">
  <path d="M11.1562 1.59375V13.8125H14.875V11.6875C14.875 11.587 14.9036 11.4885 14.9573 11.4035C15.0111 11.3186 15.0879 11.2506 15.1787 11.2075C15.2696 11.1645 15.3708 11.1481 15.4706 11.1602C15.5704 11.1724 15.6647 11.2127 15.7425 11.2763L21.5863 16.0576C21.6472 16.1074 21.6963 16.1701 21.73 16.2412C21.7637 16.3123 21.7812 16.3901 21.7812 16.4688C21.7812 16.5474 21.7637 16.6252 21.73 16.6963C21.6963 16.7674 21.6472 16.8301 21.5863 16.8799L15.7425 21.6612C15.6647 21.7248 15.5704 21.7651 15.4706 21.7773C15.3708 21.7894 15.2696 21.773 15.1787 21.73C15.0879 21.6869 15.0111 21.6189 14.9573 21.534C14.9036 21.449 14.875 21.3505 14.875 21.25V19.125H11.1562V26.0312H14.875C15.0159 26.0312 15.151 26.0872 15.2507 26.1868C15.3503 26.2865 15.4062 26.4216 15.4062 26.5625V30.2812H32.4062V1.59375H11.1562ZM14.3438 3.71875H13.2812V4.78125H12.2188V3.1875C12.2188 3.0466 12.2747 2.91148 12.3743 2.81185C12.474 2.71222 12.6091 2.65625 12.75 2.65625H14.3438V3.71875ZM31.3438 28.6875C31.3438 28.8284 31.2878 28.9635 31.1882 29.0632C31.0885 29.1628 30.9534 29.2188 30.8125 29.2188H29.2188V28.1562H30.2812V27.0938H31.3438V28.6875ZM31.3438 6.90625H30.2812V5.84375H31.3438V6.90625ZM31.3438 4.78125H30.2812V3.71875H29.2188V2.65625H30.8125C30.9534 2.65625 31.0885 2.71222 31.1882 2.81185C31.2878 2.91148 31.3438 3.0466 31.3438 3.1875V4.78125Z" fill="#DAD5CB"/>
  <path d="M11.9074 27.0938L14.3438 29.5301V27.0938H11.9074Z" fill="#DAD5CB"/>
  <path d="M14.4994 31.1881L10.2494 26.9381C10.1498 26.8385 10.0938 26.7034 10.0938 26.5625V19.125H9.03125V32.4062H30.2812V31.3438H14.875C14.7341 31.3437 14.599 31.2877 14.4994 31.1881Z" fill="#DAD5CB"/>
  <path d="M15.9375 18.5938V20.1291L20.4112 16.4688L15.9375 12.8084V14.3438C15.9375 14.4846 15.8815 14.6198 15.7819 14.7194C15.6823 14.819 15.5471 14.875 15.4062 14.875H5.84375V18.0625H15.4062C15.5471 18.0625 15.6823 18.1185 15.7819 18.2181C15.8815 18.3177 15.9375 18.4529 15.9375 18.5938Z" fill="#DAD5CB"/>
  <path d="M9.03125 3.71875H10.0938V13.8125H9.03125V3.71875Z" fill="#DAD5CB"/>
  <path d="M3.1875 14.875H4.25V18.0625H3.1875V14.875Z" fill="#DAD5CB"/>
  <path d="M1.0625 14.875H2.125V18.0625H1.0625V14.875Z" fill="#DAD5CB"/>
</svg>
