<svg xmlns="http://www.w3.org/2000/svg" width="30" height="30" viewBox="0 0 30 30" fill="none">
  <g clip-path="url(#clip0_3_97)">
    <path fill-rule="evenodd" clip-rule="evenodd" d="M8.03162 10.949C8.03162 8.03163 9.17398 5.27241 11.2478 3.21617C13.3216 1.14235 16.0633 0 18.9807 0C21.9156 0 24.6573 1.14235 26.7311 3.21617C28.8049 5.27241 29.9297 8.03163 29.9297 10.949C29.9297 13.8664 28.8049 16.6257 26.7311 18.6995C24.6573 20.7557 21.9156 21.8981 18.9807 21.8981C16.0633 21.8981 13.3216 20.7557 11.2478 18.6995C9.17398 16.6257 8.03162 13.8664 8.03162 10.949ZM10.4921 10.949C10.4921 8.6819 11.3708 6.53779 12.9701 4.93849C14.587 3.33919 16.7135 2.44288 18.9807 2.44288C21.2654 2.44288 23.3919 3.33919 25.0088 4.93849C26.6081 6.53779 27.4868 8.6819 27.4868 10.949C27.4868 13.2162 26.6081 15.3603 25.0088 16.9596C21.6872 20.2812 16.2917 20.2812 12.9701 16.9596C11.3708 15.3603 10.4921 13.2162 10.4921 10.949Z" fill="black"/>
    <path fill-rule="evenodd" clip-rule="evenodd" d="M6.9947 21.0545C6.9947 20.9139 7.04743 20.7733 7.15288 20.6678L9.50789 18.3128C9.82423 18.7171 10.1406 19.0861 10.5096 19.4376C10.8963 19.8418 11.3181 20.1933 11.7574 20.5272L9.38486 22.8998C9.17397 23.1107 8.84005 23.1107 8.62915 22.8998C8.54128 22.7944 8.48855 22.6714 8.48855 22.5308C8.48855 22.4077 8.5237 22.3023 8.594 22.2144L7.75042 21.529C7.55709 21.6169 7.32862 21.5817 7.15288 21.4236C7.04743 21.3181 6.9947 21.1775 6.9947 21.0545Z" fill="black"/>
    <path fill-rule="evenodd" clip-rule="evenodd" d="M0.0702731 27.7153C0.0702731 27.1178 0.298744 26.5378 0.738112 26.116L5.6766 21.1599C6.09839 20.7381 6.67836 20.5097 7.2759 20.5097C7.89101 20.5097 8.47098 20.7381 8.89277 21.1599C9.31456 21.5993 9.56061 22.1617 9.56061 22.7768C9.56061 23.3919 9.31456 23.9543 8.89277 24.3937L3.95428 29.3322C3.05797 30.2109 1.61685 30.2109 0.738112 29.3322C0.298744 28.8928 0.0702731 28.3304 0.0702731 27.7153Z" fill="black"/>
    <path fill-rule="evenodd" clip-rule="evenodd" d="M15.4306 7.39895C17.3989 5.43058 20.58 5.43058 22.5483 7.39895C22.7592 7.59227 23.0931 7.59227 23.2865 7.39895C23.4974 7.18805 23.4974 6.85413 23.2865 6.64324C20.9139 4.27065 17.065 4.27065 14.6924 6.64324C14.587 6.74869 14.5343 6.88928 14.5343 7.01231C14.5343 7.1529 14.587 7.2935 14.6924 7.39895C14.8858 7.59227 15.2197 7.59227 15.4306 7.39895Z" fill="black"/>
  </g>
  <defs>
    <clipPath id="clip0_3_97">
      <rect width="30" height="30" fill="white" transform="matrix(0 1 -1 0 30 0)"/>
    </clipPath>
  </defs>
</svg>
