<svg xmlns="http://www.w3.org/2000/svg" width="34" height="34" viewBox="0 0 34 34" fill="none">
  <path d="M17 2.125C14.058 2.125 11.1821 2.9974 8.7359 4.63189C6.28972 6.26638 4.38315 8.58953 3.2573 11.3076C2.13145 14.0256 1.83687 17.0165 2.41083 19.902C2.98478 22.7874 4.40149 25.4379 6.48179 27.5182C8.5621 29.5985 11.2126 31.0152 14.098 31.5892C16.9835 32.1631 19.9744 31.8686 22.6924 30.7427C25.4105 29.6169 27.7336 27.7103 29.3681 25.2641C31.0026 22.8179 31.875 19.942 31.875 17C31.875 13.0549 30.3078 9.27139 27.5182 6.48179C24.7286 3.69218 20.9451 2.125 17 2.125ZM29.75 17C29.744 17.6872 29.6836 18.3729 29.5694 19.0506L22.3125 11.7406L26.0631 7.99C27.2416 9.17439 28.1741 10.5803 28.8069 12.1266C29.4396 13.673 29.7602 15.3292 29.75 17ZM17.7544 16.2456L20.7613 13.2388L28.9425 21.4306C28.4307 22.8133 27.6829 24.0967 26.7325 25.2237L17.7544 16.2456ZM25.1919 26.7325C24.0648 27.6829 22.7814 28.4307 21.3988 28.9425L13.2069 20.7613L16.2138 17.7544L25.1919 26.7325ZM7.99001 26.01L11.7406 22.3125L19.0506 29.6225C18.3715 29.7189 17.6858 29.7616 17 29.75C15.3255 29.7532 13.667 29.4243 12.1205 28.7823C10.5739 28.1403 9.17002 27.1981 7.99001 26.01Z" fill="#DAD5CB"/>
</svg>
